<svg width="25" height="35" viewBox="0 0 25 35" fill="none" xmlns="http://www.w3.org/2000/svg">
<g clip-path="url(#clip0_1_8)">
<path d="M24.7963 6.87833L22.5373 32.1849L12.383 35L2.25661 32.1889L0 6.87833H24.7963Z" fill="#264DE4"/>
<path d="M20.6033 30.5735L22.5338 8.94783H12.3981V32.8483L20.6033 30.5735Z" fill="#2965F1"/>
<path d="M5.17322 18.3351L5.45144 21.4393H12.3981V18.3351H5.17322Z" fill="#EBEBEB"/>
<path d="M12.3981 12.0521H12.3874H4.6142L4.89638 15.1564H12.3981V12.0521Z" fill="#EBEBEB"/>
<path d="M12.3981 29.6269V26.3972L12.3845 26.4008L8.92732 25.4673L8.70631 22.9915H7.02638H5.59015L6.02505 27.8656L12.3838 29.6309L12.3981 29.6269Z" fill="#EBEBEB"/>
<path d="M5.83563 0H9.5954V1.57227H7.4079V3.14453H9.5954V4.7168H5.83563V0Z" fill="black"/>
<path d="M10.3474 0H14.1071V1.36719H11.9196V1.64062H14.1071V4.78516H10.3474V3.34961H12.5349V3.07617H10.3474V0Z" fill="black"/>
<path d="M14.8591 0H18.6188V1.36719H16.4313V1.64062H18.6188V4.78516H14.8591V3.34961H17.0466V3.07617H14.8591V0Z" fill="black"/>
<path d="M16.2099 21.4393L15.8496 25.4653L12.3874 26.3998V29.6293L18.7512 27.8656L18.7979 27.3412L19.5274 19.1687L19.6031 18.3351L20.1635 12.0521H12.3874V15.1564H16.7616L16.4791 18.3351H12.3874V21.4393H16.2099Z" fill="white"/>
</g>
<defs>
<clipPath id="clip0_1_8">
<rect width="24.7963" height="35" fill="white"/>
</clipPath>
</defs>
</svg>
